<svg xmlns="http://www.w3.org/2000/svg" width="59.99" height="50" viewBox="0 0 59.99 50"><defs><style>.cls-1{fill:#e08d1e;}.cls-2{fill:#4c4848;}.cls-3{fill:#fcfcfc;}</style></defs><title>build</title><g id="レイヤー_2" data-name="レイヤー 2"><g id="レイヤー_1-2" data-name="レイヤー 1"><path class="cls-1" d="M3.16,44.26a1.45,1.45,0,0,0-1.25.61,2.83,2.83,0,0,0-.44,1.69c0,1.5.56,2.25,1.69,2.25a5.46,5.46,0,0,0,1.72-.35v1.19A4.77,4.77,0,0,1,3,50a2.84,2.84,0,0,1-2.25-.89A3.79,3.79,0,0,1,0,46.55,4.3,4.3,0,0,1,.38,44.7a2.81,2.81,0,0,1,1.1-1.21,3.27,3.27,0,0,1,1.68-.42,4.63,4.63,0,0,1,2,.47l-.46,1.17c-.26-.12-.51-.23-.77-.32A2.19,2.19,0,0,0,3.16,44.26Z"/><path class="cls-1" d="M10.89,47.32a2.78,2.78,0,0,1-.66,2A2.43,2.43,0,0,1,8.38,50a2.55,2.55,0,0,1-1.31-.33,2.07,2.07,0,0,1-.87-.93,3,3,0,0,1-.31-1.42,2.73,2.73,0,0,1,.66-2,2.42,2.42,0,0,1,1.86-.7A2.57,2.57,0,0,1,9.72,45a2.18,2.18,0,0,1,.87.93A3.12,3.12,0,0,1,10.89,47.32Zm-3.56,0a2.15,2.15,0,0,0,.25,1.16.9.9,0,0,0,.82.39.9.9,0,0,0,.81-.39,2.26,2.26,0,0,0,.24-1.16,2.11,2.11,0,0,0-.25-1.15.89.89,0,0,0-.81-.38.89.89,0,0,0-.81.38A2.09,2.09,0,0,0,7.33,47.32Z"/><path class="cls-1" d="M16.81,49.91H15.4v-3a1.47,1.47,0,0,0-.19-.84.73.73,0,0,0-.63-.28,1,1,0,0,0-.86.4,2.46,2.46,0,0,0-.26,1.3v2.43H12.05V44.75h1.08l.19.66h.07a1.47,1.47,0,0,1,.65-.56,2.19,2.19,0,0,1,.94-.19,1.83,1.83,0,0,1,1.37.48,2,2,0,0,1,.46,1.41Z"/><path class="cls-1" d="M21.86,48.38a1.39,1.39,0,0,1-.56,1.2,2.66,2.66,0,0,1-1.64.42,5.14,5.14,0,0,1-1-.08A3.62,3.62,0,0,1,18,49.7V48.54a6.16,6.16,0,0,0,.89.31,3.68,3.68,0,0,0,.86.12c.51,0,.77-.15.77-.44a.41.41,0,0,0-.1-.27A1.71,1.71,0,0,0,20,48c-.17-.08-.39-.19-.67-.3a4.42,4.42,0,0,1-.87-.46,1.35,1.35,0,0,1-.41-.49,1.69,1.69,0,0,1-.12-.68A1.21,1.21,0,0,1,18.48,45,2.59,2.59,0,0,1,20,44.66a4.29,4.29,0,0,1,1.81.4l-.42,1a7.65,7.65,0,0,0-.73-.28,2.24,2.24,0,0,0-.68-.1q-.63,0-.63.33a.4.4,0,0,0,.2.33,6,6,0,0,0,.88.41,4.7,4.7,0,0,1,.89.46,1.36,1.36,0,0,1,.41.49A1.46,1.46,0,0,1,21.86,48.38Z"/><path class="cls-1" d="M25.12,48.88a3,3,0,0,0,.89-.16v1a3.1,3.1,0,0,1-1.29.24,1.57,1.57,0,0,1-1.23-.43,1.83,1.83,0,0,1-.39-1.28V45.81h-.67v-.6l.78-.47.4-1.08h.9v1.09H26v1.06H24.51v2.48a.58.58,0,0,0,.17.45A.68.68,0,0,0,25.12,48.88Z"/><path class="cls-1" d="M29.93,44.66a2.05,2.05,0,0,1,.47,0L30.3,46a1.67,1.67,0,0,0-.42-.05,1.5,1.5,0,0,0-1.05.35,1.24,1.24,0,0,0-.37,1v2.63H27.05V44.75h1.07l.2.87h.07a2,2,0,0,1,.65-.7A1.57,1.57,0,0,1,29.93,44.66Z"/><path class="cls-1" d="M35,49.91l-.19-.66h-.07a1.5,1.5,0,0,1-.64.55,2.21,2.21,0,0,1-1,.2,1.79,1.79,0,0,1-1.37-.49,2,2,0,0,1-.46-1.4V44.75h1.41v3a1.39,1.39,0,0,0,.2.84.71.71,0,0,0,.63.28,1,1,0,0,0,.85-.39,2.43,2.43,0,0,0,.26-1.31V44.75h1.41v5.16Z"/><path class="cls-1" d="M39.64,50c-1.6,0-2.41-.88-2.41-2.64a2.8,2.8,0,0,1,.66-2,2.45,2.45,0,0,1,1.87-.69,3.5,3.5,0,0,1,1.61.35L41,46.09c-.22-.08-.42-.16-.61-.21a2,2,0,0,0-.58-.09c-.73,0-1.09.52-1.09,1.56s.36,1.51,1.09,1.51a2.63,2.63,0,0,0,.76-.11,2.45,2.45,0,0,0,.69-.34v1.21a2.58,2.58,0,0,1-.69.3A4.26,4.26,0,0,1,39.64,50Z"/><path class="cls-1" d="M44.57,48.88a3,3,0,0,0,.89-.16v1a3.1,3.1,0,0,1-1.29.24,1.57,1.57,0,0,1-1.23-.43,1.83,1.83,0,0,1-.39-1.28V45.81h-.67v-.6l.78-.47.4-1.08H44v1.09H45.4v1.06H44v2.48a.58.58,0,0,0,.17.45A.68.68,0,0,0,44.57,48.88Z"/><path class="cls-1" d="M46.44,43.42c0-.46.26-.69.77-.69s.76.23.76.69a.66.66,0,0,1-.19.51.81.81,0,0,1-.57.18C46.7,44.11,46.44,43.88,46.44,43.42Zm1.47,6.49H46.5V44.75h1.41Z"/><path class="cls-1" d="M54.07,47.32a2.74,2.74,0,0,1-.67,2,2.42,2.42,0,0,1-1.85.71,2.58,2.58,0,0,1-1.31-.33,2.18,2.18,0,0,1-.87-.93,3.16,3.16,0,0,1-.3-1.42,2.73,2.73,0,0,1,.66-2,2.41,2.41,0,0,1,1.85-.7,2.55,2.55,0,0,1,1.31.32,2.07,2.07,0,0,1,.87.93A3,3,0,0,1,54.07,47.32Zm-3.57,0a2.25,2.25,0,0,0,.25,1.16.9.9,0,0,0,.82.39.88.88,0,0,0,.81-.39,2.15,2.15,0,0,0,.25-1.16,2.11,2.11,0,0,0-.25-1.15,1.06,1.06,0,0,0-1.63,0A2.18,2.18,0,0,0,50.5,47.32Z"/><path class="cls-1" d="M60,49.91H58.58v-3a1.46,1.46,0,0,0-.2-.84.71.71,0,0,0-.63-.28.93.93,0,0,0-.85.4,2.37,2.37,0,0,0-.26,1.3v2.43H55.23V44.75H56.3l.19.66h.08a1.42,1.42,0,0,1,.65-.56,2.16,2.16,0,0,1,.94-.19,1.8,1.8,0,0,1,1.36.48A2,2,0,0,1,60,46.55Z"/><polygon class="cls-2" points="14.42 8.79 14.42 41.45 16.85 41.45 16.85 10.4 32.98 3.65 32.98 41.45 35.41 41.45 35.41 0 14.42 8.79"/><polygon class="cls-1" points="11.66 17.72 0.96 22.2 0.96 41.45 11.66 41.45 11.66 17.72"/><polygon class="cls-1" points="38.17 8.68 59.15 17.46 59.15 41.45 38.17 41.45 38.17 8.68"/><polygon class="cls-2" points="29.51 11.42 29.51 13.61 20.27 17.48 20.27 15.29 29.51 11.42"/><polygon class="cls-2" points="29.51 19.23 29.51 21.42 20.27 25.29 20.27 23.1 29.51 19.23"/><polygon class="cls-3" points="9.61 22.19 9.61 23.81 2.77 26.68 2.77 25.06 9.61 22.19"/><polygon class="cls-3" points="9.61 27.98 9.61 29.6 2.77 32.47 2.77 30.85 9.61 27.98"/><polygon class="cls-3" points="42.78 14.54 42.78 16.73 56.31 22.38 56.31 20.19 42.78 14.54"/><polygon class="cls-3" points="42.78 21.04 42.78 23.23 56.31 28.89 56.31 26.7 42.78 21.04"/></g></g></svg>